<svg height="210mm" viewBox="-65 0 841.88976 595.27559" width="297mm" xmlns="http://www.w3.org/2000/svg"><g transform="translate(-2937.8571 -391.35386)"><g stroke-width=".887978"><path d="m3244.9202 565.16266h-134.9727c-3.9301 0-7.1039-3.17382-7.1039-7.10382 0-3.93001 3.1738-7.10383 7.1039-7.10383h134.9727c3.9301 0 7.1038 3.17382 7.1038 7.10383 0 3.93-3.1737 7.10382-7.1038 7.10382zm0 0"/><path d="m3152.5704 621.99328c-27.4129 0-49.7268-22.31392-49.7268-49.72679 0-3.93 3.1738-7.10383 7.1039-7.10383 3.93 0 7.1038 3.17383 7.1038 7.10383 0 19.58409 15.9351 35.51914 35.5191 35.51914 3.9301 0 7.1039 3.17382 7.1039 7.10382 0 3.93001-3.1738 7.10383-7.1039 7.10383zm0 0"/><path d="m3109.9475 579.37032c-3.9301 0-7.1039-3.17383-7.1039-7.10383v-14.20765c0-3.93001 3.1738-7.10383 7.1039-7.10383 3.93 0 7.1038 3.17382 7.1038 7.10383v14.20765c0 3.93-3.1738 7.10383-7.1038 7.10383zm0 0"/><path d="m3244.9202 621.99328h-92.3498c-3.93 0-7.1038-3.17382-7.1038-7.10383 0-3.93 3.1738-7.10382 7.1038-7.10382h92.3498c3.9301 0 7.1038 3.17382 7.1038 7.10382 0 3.93001-3.1737 7.10383-7.1038 7.10383zm0 0"/><path d="m3244.9202 650.40859c-3.9301 0-7.1038-3.17382-7.1038-7.10383v-142.07654c0-3.93 3.1737-7.10383 7.1038-7.10383s7.1038 3.17383 7.1038 7.10383v142.07654c0 3.93001-3.1737 7.10383-7.1038 7.10383zm0 0"/><path d="m3344.3738 650.40859c-3.9301 0-7.1039-3.17382-7.1039-7.10383v-142.07654c0-3.93 3.1738-7.10383 7.1039-7.10383 3.93 0 7.1038 3.17383 7.1038 7.10383v142.07654c0 3.93001-3.1738 7.10383-7.1038 7.10383zm0 0"/><path d="m3344.3738 508.33205c-3.9301 0-7.1039-3.17383-7.1039-7.10383 0-23.50716-19.1157-42.62296-42.6229-42.62296-23.5071 0-42.623 19.1158-42.623 42.62296 0 3.93-3.1737 7.10383-7.1038 7.10383s-7.1038-3.17383-7.1038-7.10383c0-31.33593 25.4946-56.83062 56.8306-56.83062 31.3359 0 56.8306 25.49469 56.8306 56.83062 0 3.93-3.1738 7.10383-7.1038 7.10383zm0 0"/><path d="m3294.6401 536.74736c-1.3493 0-2.7196-.39197-3.9369-1.19323l-21.3115-14.20766c-3.2675-2.18177-4.1487-6.58698-1.9668-9.85448 2.1749-3.26747 6.5696-4.14851 9.8544-1.96671l21.3115 14.20765c3.2675 2.18178 4.1486 6.58698 1.9668 9.85448-1.3632 2.05345-3.6249 3.15995-5.9175 3.15995zm0 0"/><path d="m3294.6538 536.74736c-2.2926 0-4.5542-1.1065-5.9175-3.15995-2.1818-3.2675-1.3007-7.6727 1.9669-9.85448l21.3114-14.20765c3.2676-2.1818 7.6795-1.30076 9.8545 1.96671 2.1818 3.2675 1.3007 7.67271-1.9668 9.85448l-21.3115 14.20766c-1.2174.80126-2.5875 1.19323-3.937 1.19323zm0 0"/><path d="m3252.0171 565.16266c-1.0648 0-2.1541-.2428-3.1668-.74576l-7.1039-3.55191c-3.5102-1.75514-4.9324-6.02509-3.1773-9.53189 1.7551-3.51029 6.0319-4.91857 9.5353-3.17731l7.1038 3.55192c3.5069 1.75514 4.9291 6.02506 3.174 9.53537-1.2489 2.48355-3.7568 3.91958-6.3651 3.91958zm0 0"/><path d="m3337.2631 565.16266c-1.0649 0-2.1542-.2428-3.1669-.74576l-14.2077-7.10382c-3.5102-1.75515-4.9324-6.02509-3.1773-9.53189 1.762-3.51029 6.0319-4.92551 9.5353-3.17731l14.2076 7.10383c3.5069 1.75514 4.9291 6.02506 3.174 9.53537-1.2489 2.48355-3.7567 3.91958-6.365 3.91958zm0 0"/><path d="m3308.8615 565.16266c-2.6083 0-5.1162-1.43603-6.365-3.93-1.7552-3.50683-.333-7.77675 3.174-9.53189l14.2076-7.10383c3.5034-1.7482 7.7733-.333 9.5352 3.17383 1.7552 3.51031.3332 7.78023-3.1773 9.53537l-14.2076 7.10383c-1.0128.50989-2.102.75269-3.1669.75269zm0 0"/><path d="m3308.8478 565.16266c-1.0649 0-2.1542-.2428-3.1669-.74576l-14.2077-7.10382c-3.5102-1.75515-4.9324-6.02509-3.1773-9.53189 1.762-3.51029 6.025-4.92551 9.5352-3.17731l14.2077 7.10383c3.5069 1.75514 4.9291 6.02506 3.174 9.53537-1.2489 2.48355-3.7568 3.91958-6.365 3.91958zm0 0"/><path d="m3280.4462 565.16266c-2.6083 0-5.1162-1.43603-6.365-3.93-1.7552-3.50683-.333-7.77675 3.1739-9.53189l14.2077-7.10383c3.5102-1.7482 7.7732-.333 9.5352 3.17383 1.7551 3.51031.3332 7.78023-3.1773 9.53537l-14.2076 7.10383c-1.0128.50989-2.1021.75269-3.1669.75269zm0 0"/><path d="m3280.4324 565.16266c-1.0648 0-2.1541-.2428-3.1668-.74576l-14.2077-7.10382c-3.5102-1.75515-4.9324-6.02509-3.1773-9.53189 1.762-3.51029 6.025-4.92551 9.5352-3.17731l14.2077 7.10383c3.5069 1.75514 4.9291 6.02506 3.174 9.53537-1.2489 2.48355-3.7568 3.91958-6.3651 3.91958zm0 0"/><path d="m3252.0309 565.16266c-2.6083 0-5.1162-1.43603-6.3651-3.93-1.7551-3.50683-.3329-7.77675 3.174-9.53189l14.2077-7.10383c3.5171-1.7482 7.7732-.333 9.5352 3.17383 1.7551 3.51031.3332 7.78023-3.1773 9.53537l-14.2076 7.10383c-1.0128.50989-2.1021.75269-3.1669.75269zm0 0"/><path d="m3344.3738 650.40859h-99.4536c-3.9301 0-7.1038-3.17382-7.1038-7.10383 0-3.93 3.1737-7.10382 7.1038-7.10382h99.4536c3.93 0 7.1038 3.17382 7.1038 7.10382 0 3.93001-3.1738 7.10383-7.1038 7.10383zm0 0"/><path d="m3266.2317 650.40859c-3.9301 0-7.1039-3.17382-7.1039-7.10383v-7.10382c0-3.93001 3.1738-7.10383 7.1039-7.10383 3.93 0 7.1038 3.17382 7.1038 7.10383v7.10382c0 3.93001-3.1738 7.10383-7.1038 7.10383zm0 0"/><path d="m3294.647 650.40859c-3.9301 0-7.1039-3.17382-7.1039-7.10383v-35.51913c0-3.93001 3.1738-7.10383 7.1039-7.10383 3.93 0 7.1038 3.17382 7.1038 7.10383v35.51913c0 3.93001-3.1738 7.10383-7.1038 7.10383zm0 0"/><path d="m3323.0623 650.40859c-3.9301 0-7.1038-3.17382-7.1038-7.10383v-7.10382c0-3.93001 3.1737-7.10383 7.1038-7.10383s7.1038 3.17382 7.1038 7.10383v7.10382c0 3.93001-3.1737 7.10383-7.1038 7.10383zm0 0"/><path d="m3244.9202 891.93872c-3.9301 0-7.1038-3.17383-7.1038-7.10383v-248.63395c0-3.93001 3.1737-7.10383 7.1038-7.10383s7.1038 3.17382 7.1038 7.10383v248.63395c0 3.93-3.1737 7.10383-7.1038 7.10383zm0 0"/><path d="m3344.3738 771.88131h-99.4536c-3.9301 0-7.1038-3.17383-7.1038-7.10383s3.1737-7.10383 7.1038-7.10383h99.4536c3.93 0 7.1038 3.17383 7.1038 7.10383s-3.1738 7.10383-7.1038 7.10383zm0 0"/><path d="m3344.3738 891.93872c-3.9301 0-7.1039-3.17383-7.1039-7.10383v-248.63395c0-3.93001 3.1738-7.10383 7.1039-7.10383 3.93 0 7.1038 3.17382 7.1038 7.10383v248.63395c0 3.93-3.1738 7.10383-7.1038 7.10383zm0 0"/><path d="m3415.412 899.04254h-241.5301c-3.9301 0-7.1038-3.17382-7.1038-7.10382 0-3.93001 3.1737-7.10383 7.1038-7.10383h241.5301c3.9301 0 7.1039 3.17382 7.1039 7.10383 0 3.93-3.1738 7.10382-7.1039 7.10382zm0 0"/><path d="m3305.6701 832.90044c-3.9265 0-7.1386-3.17382-7.1386-7.10382 0-3.93001 3.1392-7.10383 7.0622-7.10383h.076c3.9232 0 7.1039 3.17382 7.1039 7.10383 0 3.93-3.1807 7.10382-7.1039 7.10382zm0 0"/><path d="m3281.0472 832.90044c-3.9265 0-7.1387-3.17382-7.1387-7.10382 0-3.93001 3.1392-7.10383 7.0622-7.10383h.076c3.9232 0 7.1038 3.17382 7.1038 7.10383 0 3.93-3.1806 7.10382-7.1038 7.10382zm0 0"/></g><g stroke-width=".375" transform="matrix(2.3679424 0 0 2.3679424 1746.4656 -1417.619)"><path d="m731.80873 837.34371h-57c-1.65967 0-3-1.34033-3-3s1.34033-3 3-3h57c1.65967 0 3 1.34033 3 3s-1.34033 3-3 3zm0 0"/><path d="m713.80873 861.34371c-1.65967 0-3-1.34033-3-3s1.34033-3 3-3c8.27051 0 15-6.72949 15-15 0-1.65967 1.34033-3 3-3s3 1.34033 3 3c0 11.57666-9.42334 21-21 21zm0 0"/><path d="m731.80873 843.34371c-1.65967 0-3-1.34033-3-3v-6c0-1.65967 1.34033-3 3-3s3 1.34033 3 3v6c0 1.65967-1.34033 3-3 3zm0 0"/><path d="m713.80873 861.34371h-39c-1.65967 0-3-1.34033-3-3s1.34033-3 3-3h39c1.65967 0 3 1.34033 3 3s-1.34033 3-3 3zm0 0"/><path d="m671.81166 837.34371c-1.10156 0-2.16065-.60645-2.68799-1.65967-.74121-1.48096-.14063-3.28418 1.34033-4.02539l3-1.5c1.48535-.73535 3.28272-.14063 4.02686 1.34033.74121 1.48243.14062 3.28565-1.3418 4.02686l-3 1.5c-.42773.21533-.88769.31787-1.3374.31787zm0 0"/><path d="m686.80873 861.34664c-1.65967 0-3-1.34033-3-3v-3.00293c0-1.65967 1.34033-3 3-3s3 1.34033 3 3v3.00293c0 1.65967-1.34033 3-3 3zm0 0"/><path d="m698.80873 861.34664c-1.65967 0-3-1.34033-3-3v-3.00293c0-1.65967 1.34033-3 3-3s3 1.34033 3 3v3.00293c0 1.65967-1.34033 3-3 3zm0 0"/><path d="m710.80873 861.34664c-1.65967 0-3-1.34033-3-3v-3.00293c0-1.65967 1.34033-3 3-3s3 1.34033 3 3v3.00293c0 1.65967-1.34033 3-3 3zm0 0"/></g><path d="m3159.6743 622.00022c-3.9301 0-7.1039-3.17382-7.1039-7.10383v-7.11076c0-3.93001 3.1738-7.10383 7.1039-7.10383 3.93 0 7.1038 3.17382 7.1038 7.10383v7.11076c0 3.93001-3.1738 7.10383-7.1038 7.10383zm0 0" stroke-width=".887978"/><path d="m3188.0896 622.00022c-3.9301 0-7.1039-3.17382-7.1039-7.10383v-7.11076c0-3.93001 3.1738-7.10383 7.1039-7.10383 3.93 0 7.1038 3.17382 7.1038 7.10383v7.11076c0 3.93001-3.1738 7.10383-7.1038 7.10383zm0 0" stroke-width=".887978"/><path d="m3216.5049 622.00022c-3.9301 0-7.1039-3.17382-7.1039-7.10383v-7.11076c0-3.93001 3.1738-7.10383 7.1039-7.10383 3.93 0 7.1038 3.17382 7.1038 7.10383v7.11076c0 3.93001-3.1738 7.10383-7.1038 7.10383zm0 0" stroke-width=".887978"/><circle cx="3266.8821" cy="678.34253" r="4.353242" stroke="#000" stroke-linecap="round" stroke-linejoin="round" stroke-width="11.25"/><circle cx="3323.0532" cy="678.02875" r="4.353241" stroke="#000" stroke-linecap="round" stroke-linejoin="round" stroke-width="11.25"/><path d="m3209.9371 717.8084h44.1774" fill="none" stroke="#000" stroke-linecap="round" stroke-linejoin="round" stroke-width="11.25"/><path d="m3209.9256 731.0481h44.1774" fill="none" stroke="#000" stroke-linecap="round" stroke-linejoin="round" stroke-width="11.25"/><path d="m3335.2773 717.8856h44.1774" fill="none" stroke="#000" stroke-linecap="round" stroke-linejoin="round" stroke-width="11.25"/><path d="m3335.9035 731.25636h44.1774" fill="none" stroke="#000" stroke-linecap="round" stroke-linejoin="round" stroke-width="11.25"/><g stroke="#000" stroke-width="11.25" transform="matrix(.78961836 0 0 .78961836 695.852 147.09942)"><path d="m3228.4988 697.26247c17.7546-4.30208 39.345.77815 42.9256 5.73611" fill="none" stroke-linecap="round" stroke-linejoin="round"/><path d="m3306.8725 703.04296c16.792-7.62316 28.107-8.14184 41.2107-5.67451" fill="none" stroke-linecap="round" stroke-linejoin="round"/><path d="m3271.4244 702.99858 35.4481.0444s-4.475-.46716 0 0c4.475.46717-14.8728 23.03953-17.775 19.81491-7.0925-.008-13.4188-8.11726-17.6731-19.85929z"/><path d="m3288.2725 713.71063h1.170209v16.361906h-1.170209z"/></g><path d="m3346.2219 668.62915-1.8482-18.22057 16.7036 7.50974z" stroke="#000" stroke-linecap="round" stroke-linejoin="round" stroke-width="11.25" transform="matrix(.82139305 -.63151469 .60592892 .85607694 192.08316 2203.9556)"/><path d="m3346.2219 668.62915-1.8482-18.22057 16.7036 7.50974z" stroke="#000" stroke-linecap="round" stroke-linejoin="round" stroke-width="11.25" transform="matrix(-.8015097 -.65656644 .69615352 -.78446658 5472.6755 3365.781)"/><path d="m3269.2648 855.672c-39.769 63.24003-92.7121 22.60957-101.9131 2.1684" fill="none" stroke="#000" stroke-linecap="round" stroke-linejoin="round" stroke-width="12.75"/><path d="m3245.6626 827.76769c.5776 26.3333-28.6694 54.80172-47.6842 39.86547-14.167-11.1283-17.5922-23.48965-13.1552-35.20518 2.8991-7.65479 14.0178-14.42552 21.6768-11.53774 8.4689 3.19313 13.0351 5.15346 9.5793 25.40674" fill="none" stroke="#000" stroke-linecap="round" stroke-linejoin="round" stroke-width="12.75"/><path d="m3344.6701 825.40044c-.4642 26.33553 28.9052 54.67771 47.8555 39.65967 14.1189-11.18924 17.4909-23.56523 13.0034-35.26156-2.9321-7.64216-14.0798-14.36496-21.7263-11.44415-8.4551 3.22951-13.0128 5.20952-9.4697 25.44775" fill="none" stroke="#000" stroke-linecap="round" stroke-linejoin="round" stroke-width="12.75"/><path d="m3421.696 868.79191c-58.0607 46.28671-96.2812 8.77923-105.4822-11.66194" fill="none" stroke="#000" stroke-linecap="round" stroke-linejoin="round" stroke-width="12.75"/><path d="m3244.4839 814.65194c3.5061-45.08935 81.3131-68.09982 100.3815 0 2.2307-13.83038-.0001-50.85997-.0001-50.85997l-100.8276-.89227z" stroke="#000" stroke-width=".75"/><path d="m3295.5731 860.14357c-.079 15.04778 14.9487 28.06669 26.8193 31.25389" fill="none" stroke="#000" stroke-linecap="round" stroke-linejoin="round" stroke-width="12.75"/></g><g stroke-width=".375" transform="matrix(.8123257 0 0 .72826087 966.57647 -362.42539)"><path d="m3458.1251 405.13204h-57c-1.6597 0-3-1.34033-3-3s1.3403-3 3-3h57c1.6597 0 3 1.34033 3 3s-1.3403 3-3 3zm0 0"/><path d="m3419.1251 429.13204c-11.5767 0-21-9.42334-21-21 0-1.65967 1.3403-3 3-3s3 1.34033 3 3c0 8.27051 6.7295 15 15 15 1.6597 0 3 1.34033 3 3s-1.3403 3-3 3zm0 0"/><path d="m3401.1251 411.13204c-1.6597 0-3-1.34033-3-3v-6c0-1.65967 1.3403-3 3-3s3 1.34033 3 3v6c0 1.65967-1.3403 3-3 3zm0 0"/><path d="m3458.1251 429.13204h-39c-1.6597 0-3-1.34033-3-3s1.3403-3 3-3h39c1.6597 0 3 1.34033 3 3s-1.3403 3-3 3zm0 0"/><path d="m3557.1251 405.13204h-57c-1.6597 0-3-1.34033-3-3s1.3403-3 3-3h57c1.6597 0 3 1.34033 3 3s-1.3403 3-3 3zm0 0"/><path d="m3539.1251 429.13204c-1.6597 0-3-1.34033-3-3s1.3403-3 3-3c8.2705 0 15-6.72949 15-15 0-1.65967 1.3403-3 3-3s3 1.34033 3 3c0 11.57666-9.4233 21-21 21zm0 0"/><path d="m3557.1251 411.13204c-1.6597 0-3-1.34033-3-3v-6c0-1.65967 1.3403-3 3-3s3 1.34033 3 3v6c0 1.65967-1.3403 3-3 3zm0 0"/><path d="m3539.1251 429.13204h-39c-1.6597 0-3-1.34033-3-3s1.3403-3 3-3h39c1.6597 0 3 1.34033 3 3s-1.3403 3-3 3zm0 0"/><path d="m3458.1251 441.13204c-1.6597 0-3-1.34033-3-3v-60c0-1.65967 1.3403-3 3-3s3 1.34033 3 3v60c0 1.65967-1.3403 3-3 3zm0 0"/><path d="m3500.1251 441.13204c-1.6597 0-3-1.34033-3-3v-60c0-1.65967 1.3403-3 3-3s3 1.34033 3 3v60c0 1.65967-1.3403 3-3 3zm0 0"/><path d="m3500.1251 381.13204c-1.6597 0-3-1.34033-3-3 0-9.92725-8.0728-18-18-18s-18 8.07275-18 18c0 1.65967-1.3403 3-3 3s-3-1.34033-3-3c0-13.2334 10.7666-24 24-24s24 10.7666 24 24c0 1.65967-1.3403 3-3 3zm0 0"/><path d="m3479.1222 393.13204c-.5699 0-1.1485-.16553-1.6626-.50391l-9-6c-1.3799-.92138-1.752-2.78173-.8306-4.16162.9185-1.37988 2.7744-1.75195 4.1616-.83056l9 6c1.3799.92138 1.752 2.78173.8306 4.16162-.5757.86719-1.5308 1.33447-2.499 1.33447zm0 0"/><path d="m3479.128 393.13204c-.9682 0-1.9233-.46728-2.499-1.33447-.9214-1.37989-.5493-3.24024.8306-4.16162l9-6c1.3799-.92139 3.2431-.54932 4.1616.83056.9214 1.37989.5493 3.24024-.8306 4.16162l-9 6c-.5141.33838-1.0927.50391-1.6626.50391zm0 0"/><path d="m3497.128 405.13204c-1.1015 0-2.1606-.60645-2.688-1.65967-.7412-1.48095-.1406-3.28418 1.3404-4.02539l3-1.5c1.4853-.73535 3.2827-.14063 4.0268 1.34033.7412 1.48243.1407 3.28565-1.3418 4.02686l-3 1.5c-.4277.21533-.8877.31787-1.3374.31787zm0 0"/><path d="m3461.1222 405.13204c-.4497 0-.9097-.10254-1.3374-.31494l-3-1.5c-1.4825-.74121-2.083-2.54443-1.3418-4.02539.7412-1.48242 2.5473-2.07715 4.0268-1.3418l3 1.5c1.481.74121 2.0816 2.54443 1.3404 4.02686-.5274 1.04882-1.5865 1.65527-2.688 1.65527zm0 0"/><path d="m3497.1222 405.13204c-.4497 0-.9097-.10254-1.3374-.31494l-6-3c-1.4825-.74121-2.083-2.54443-1.3418-4.02539.7441-1.48242 2.5473-2.08008 4.0268-1.3418l6 3c1.481.74121 2.0816 2.54443 1.3404 4.02686-.5274 1.04882-1.5865 1.65527-2.688 1.65527zm0 0"/><path d="m3485.128 405.13204c-1.1015 0-2.1606-.60645-2.688-1.65967-.7412-1.48095-.1406-3.28418 1.3404-4.02539l6-3c1.4795-.73828 3.2827-.14063 4.0268 1.34033.7412 1.48243.1407 3.28565-1.3418 4.02686l-6 3c-.4277.21533-.8877.31787-1.3374.31787zm0 0"/><path d="m3485.1222 405.13204c-.4497 0-.9097-.10254-1.3374-.31494l-6-3c-1.4825-.74121-2.083-2.54443-1.3418-4.02539.7441-1.48242 2.5444-2.08008 4.0268-1.3418l6 3c1.481.74121 2.0816 2.54443 1.3404 4.02686-.5274 1.04882-1.5865 1.65527-2.688 1.65527zm0 0"/><path d="m3473.128 405.13204c-1.1015 0-2.1606-.60645-2.688-1.65967-.7412-1.48095-.1406-3.28418 1.3404-4.02539l6-3c1.4824-.73828 3.2827-.14063 4.0268 1.34033.7412 1.48243.1407 3.28565-1.3418 4.02686l-6 3c-.4277.21533-.8877.31787-1.3374.31787zm0 0"/><path d="m3473.1222 405.13204c-.4497 0-.9097-.10254-1.3374-.31494l-6-3c-1.4825-.74121-2.083-2.54443-1.3418-4.02539.7441-1.48242 2.5444-2.08008 4.0268-1.3418l6 3c1.481.74121 2.0816 2.54443 1.3404 4.02686-.5274 1.04882-1.5865 1.65527-2.688 1.65527zm0 0"/><path d="m3461.128 405.13204c-1.1015 0-2.1606-.60645-2.688-1.65967-.7412-1.48095-.1406-3.28418 1.3404-4.02539l6-3c1.4853-.73828 3.2827-.14063 4.0268 1.34033.7412 1.48243.1407 3.28565-1.3418 4.02686l-6 3c-.4277.21533-.8877.31787-1.3374.31787zm0 0"/><path d="m3500.1251 441.13204h-42c-1.6597 0-3-1.34033-3-3s1.3403-3 3-3h42c1.6597 0 3 1.34033 3 3s-1.3403 3-3 3zm0 0"/><path d="m3467.1251 441.13204c-1.6597 0-3-1.34033-3-3v-3c0-1.65967 1.3403-3 3-3s3 1.34033 3 3v3c0 1.65967-1.3403 3-3 3zm0 0"/><path d="m3479.1251 441.13204c-1.6597 0-3-1.34033-3-3v-15c0-1.65967 1.3403-3 3-3s3 1.34033 3 3v15c0 1.65967-1.3403 3-3 3zm0 0"/><path d="m3491.1251 441.13204c-1.6597 0-3-1.34033-3-3v-3c0-1.65967 1.3403-3 3-3s3 1.34033 3 3v3c0 1.65967-1.3403 3-3 3zm0 0"/><path d="m3458.1251 543.13204c-1.6597 0-3-1.34033-3-3v-105c0-1.65967 1.3403-3 3-3s3 1.34033 3 3v105c0 1.65967-1.3403 3-3 3zm0 0"/><path d="m3500.1251 498.13204h-42c-1.6597 0-3-1.34033-3-3s1.3403-3 3-3h42c1.6597 0 3 1.34033 3 3s-1.3403 3-3 3zm0 0"/><path d="m3500.1251 543.13204c-1.6597 0-3-1.34033-3-3v-105c0-1.65967 1.3403-3 3-3s3 1.34033 3 3v105c0 1.65967-1.3403 3-3 3zm0 0"/><path d="m3464.1251 486.13204c-4.9614 0-9-4.03857-9-9s4.0386-9 9-9c1.6597 0 3 1.34033 3 3s-1.3403 3-3 3c-1.6553 0-3 1.34473-3 3s1.3447 3 3 3c1.6597 0 3 1.34033 3 3s-1.3403 3-3 3zm0 0"/><path d="m3494.1251 486.13204c-1.6597 0-3-1.34033-3-3s1.3403-3 3-3c1.6553 0 3-1.34473 3-3s-1.3447-3-3-3c-1.6597 0-3-1.34033-3-3s1.3403-3 3-3c4.9614 0 9 4.03857 9 9s-4.0386 9-9 9zm0 0"/><path d="m3494.1251 474.13204h-30c-1.6597 0-3-1.34033-3-3s1.3403-3 3-3h30c1.6597 0 3 1.34033 3 3s-1.3403 3-3 3zm0 0"/><path d="m3494.1251 486.13204h-30c-1.6597 0-3-1.34033-3-3s1.3403-3 3-3h30c1.6597 0 3 1.34033 3 3s-1.3403 3-3 3zm0 0"/><path d="m3467.1251 465.13204c-1.6597 0-3-1.34033-3-3s1.3403-3 3-3c1.6553 0 3-1.34473 3-3s-1.3447-3-3-3c-1.6597 0-3-1.34033-3-3s1.3403-3 3-3c4.9614 0 9 4.03857 9 9s-4.0386 9-9 9zm0 0"/><path d="m3467.1251 453.13204h-9c-1.6597 0-3-1.34033-3-3s1.3403-3 3-3h9c1.6597 0 3 1.34033 3 3s-1.3403 3-3 3zm0 0"/><path d="m3467.1251 465.13204h-9c-1.6597 0-3-1.34033-3-3s1.3403-3 3-3h9c1.6597 0 3 1.34033 3 3s-1.3403 3-3 3zm0 0"/><path d="m3491.1251 465.13204c-4.9614 0-9-4.03857-9-9s4.0386-9 9-9c1.6597 0 3 1.34033 3 3s-1.3403 3-3 3c-1.6553 0-3 1.34473-3 3s1.3447 3 3 3c1.6597 0 3 1.34033 3 3s-1.3403 3-3 3zm0 0"/><path d="m3500.1251 465.13204h-9c-1.6597 0-3-1.34033-3-3s1.3403-3 3-3h9c1.6597 0 3 1.34033 3 3s-1.3403 3-3 3zm0 0"/><path d="m3500.1251 453.13204h-9c-1.6597 0-3-1.34033-3-3s1.3403-3 3-3h9c1.6597 0 3 1.34033 3 3s-1.3403 3-3 3zm0 0"/><path d="m3473.1251 477.13204c-1.6597 0-3-1.34033-3-3v-3c0-1.65967 1.3403-3 3-3s3 1.34033 3 3v3c0 1.65967-1.3403 3-3 3zm0 0"/><path d="m3485.1251 477.13204c-1.6597 0-3-1.34033-3-3v-3c0-1.65967 1.3403-3 3-3s3 1.34033 3 3v3c0 1.65967-1.3403 3-3 3zm0 0"/><path d="m3455.1251 522.13204c-4.9614 0-9-4.03857-9-9s4.0386-9 9-9c1.6597 0 3 1.34033 3 3s-1.3403 3-3 3c-1.6553 0-3 1.34473-3 3s1.3447 3 3 3c1.6597 0 3 1.34033 3 3s-1.3403 3-3 3zm0 0"/><path d="m3458.1251 510.13204h-3c-1.6597 0-3-1.34033-3-3s1.3403-3 3-3h3c1.6597 0 3 1.34033 3 3s-1.3403 3-3 3zm0 0"/><path d="m3458.1251 522.13204h-3c-1.6597 0-3-1.34033-3-3s1.3403-3 3-3h3c1.6597 0 3 1.34033 3 3s-1.3403 3-3 3zm0 0"/><path d="m3503.1251 522.13204c-1.6597 0-3-1.34033-3-3s1.3403-3 3-3c1.6553 0 3-1.34473 3-3s-1.3447-3-3-3c-1.6597 0-3-1.34033-3-3s1.3403-3 3-3c4.9614 0 9 4.03857 9 9s-4.0386 9-9 9zm0 0"/><path d="m3503.1251 522.13204h-3c-1.6597 0-3-1.34033-3-3s1.3403-3 3-3h3c1.6597 0 3 1.34033 3 3s-1.3403 3-3 3zm0 0"/><path d="m3503.1251 510.13204h-3c-1.6597 0-3-1.34033-3-3s1.3403-3 3-3h3c1.6597 0 3 1.34033 3 3s-1.3403 3-3 3zm0 0"/><path d="m3479.1251 537.13204c-4.9614 0-9-4.03857-9-9 0-1.65967 1.3403-3 3-3s3 1.34033 3 3c0 1.65527 1.3447 3 3 3s3-1.34473 3-3c0-1.65967 1.3403-3 3-3s3 1.34033 3 3c0 4.96143-4.0386 9-9 9zm0 0"/><path d="m3473.1251 531.13204c-1.6597 0-3-1.34033-3-3v-3c0-1.65967 1.3403-3 3-3s3 1.34033 3 3v3c0 1.65967-1.3403 3-3 3zm0 0"/><path d="m3485.1251 531.13204c-1.6597 0-3-1.34033-3-3v-3c0-1.65967 1.3403-3 3-3s3 1.34033 3 3v3c0 1.65967-1.3403 3-3 3zm0 0"/><path d="m3491.1251 528.13204h-24c-1.6597 0-3-1.34033-3-3s1.3403-3 3-3h24c1.6597 0 3 1.34033 3 3s-1.3403 3-3 3zm0 0"/><path d="m3488.2145 513.13204c-1.6582 0-3.0147-1.34033-3.0147-3s1.3257-3 2.9824-3h.032c1.6568 0 3 1.34033 3 3s-1.3432 3-3 3zm0 0"/><path d="m3470.2145 513.13204c-1.6582 0-3.0147-1.34033-3.0147-3s1.3257-3 2.9824-3h.032c1.6568 0 3 1.34033 3 3s-1.3432 3-3 3zm0 0"/><path d="m3512.1251 429.13497c-1.6597 0-3-1.34033-3-3v-3.00293c0-1.65967 1.3403-3 3-3s3 1.34033 3 3v3.00293c0 1.65967-1.3403 3-3 3zm0 0"/><path d="m3524.1251 429.13497c-1.6597 0-3-1.34033-3-3v-3.00293c0-1.65967 1.3403-3 3-3s3 1.34033 3 3v3.00293c0 1.65967-1.3403 3-3 3zm0 0"/><path d="m3536.1251 429.13497c-1.6597 0-3-1.34033-3-3v-3.00293c0-1.65967 1.3403-3 3-3s3 1.34033 3 3v3.00293c0 1.65967-1.3403 3-3 3zm0 0"/><path d="m3422.1251 429.13497c-1.6597 0-3-1.34033-3-3v-3.00293c0-1.65967 1.3403-3 3-3s3 1.34033 3 3v3.00293c0 1.65967-1.3403 3-3 3zm0 0"/><path d="m3434.1251 429.13497c-1.6597 0-3-1.34033-3-3v-3.00293c0-1.65967 1.3403-3 3-3s3 1.34033 3 3v3.00293c0 1.65967-1.3403 3-3 3zm0 0"/><path d="m3446.1251 429.13497c-1.6597 0-3-1.34033-3-3v-3.00293c0-1.65967 1.3403-3 3-3s3 1.34033 3 3v3.00293c0 1.65967-1.3403 3-3 3zm0 0"/></g></svg>